<svg width="470" height="614" viewBox="0 0 470 614" fill="none" xmlns="http://www.w3.org/2000/svg">
<path d="M190.032 610.998L180.713 201.367L7.03265 201.367L9.57431 610.998H190.032Z" fill="#F1F6FF"/>
<path d="M251.879 608.881V337.77L461.566 343.89V608.881H251.879Z" fill="#FEFCED"/>
<path d="M7.03301 201.367L9.57467 610.998H108.276L103.616 201.367H7.03301Z" fill="#7398F7"/>
<path d="M131.997 159.855H59.9832V201.369H131.997V159.855Z" fill="#1F1D42"/>
<path d="M59.9832 159.855V201.369H108.698C85.315 196.285 78.0572 171.575 77.3511 159.855H59.9832Z" fill="#1F1717"/>
<path d="M101.498 89.1111L93.0257 88.2639C90.9076 87.4167 90.484 77.6737 98.5326 79.7917C104.971 81.4861 103.192 86.7107 101.498 89.1111Z" fill="#0E173D"/>
<path d="M101.498 89.112L93.0263 88.2648V100.549L101.498 101.397V89.112Z" fill="#0E173D"/>
<path d="M93.0253 100.548L101.497 101.396L132.845 123.847H59.5601L93.0253 100.548Z" fill="#1F1D42"/>
<path d="M272.636 403.007H265.859V451.298H262.893V456.381H275.602V449.604H272.636V403.007Z" fill="#1B2A63"/>
<path d="M461.566 612.269H251.879V473.325L461.566 476.385V612.269Z" fill="#A3BDFF"/>
<path d="M397.177 242.458L170.546 235.257L251.879 337.77L469.614 344.124L397.177 242.458Z" fill="#063183"/>
<path d="M251.879 337.77L469.614 344.124L265.011 238.258L170.546 235.257L251.879 337.77Z" fill="#7087FB"/>
<path d="M170.546 235.257L251.879 337.77V605.915L101.921 613.117V476.291V337.77L142.164 284.819H133.268L170.546 235.257Z" fill="#CFDEF3"/>
<path d="M199.776 297.527H155.297V350.902H199.776V297.527Z" fill="#0C183F"/>
<rect x="160.38" y="303.033" width="15.2499" height="18.6388" fill="#1F326B"/>
<rect x="181.56" y="303.033" width="15.2499" height="18.6388" fill="#1F326B"/>
<rect x="181.56" y="328.451" width="15.2499" height="18.6388" fill="#1F326B"/>
<path d="M59.5616 123.846H132.846H137.929V125.964H53.6311V123.846H59.5616Z" stroke="black"/>
<path d="M99.8038 378.012H252.727H461.99" stroke="black" stroke-width="4"/>
<path d="M100.652 486.457H250.186H460.297" stroke="black" stroke-width="5"/>
<path d="M100.652 486.457H250.186" stroke="#5267FA" stroke-width="6"/>
<rect x="160.38" y="328.451" width="15.2499" height="18.6388" fill="#1F326B"/>
<path d="M62.5254 289.901H40.0741V350.901H64.2198L62.5254 289.901Z" fill="#0E173D"/>
<path d="M62.5254 395.381H40.0741V456.381H64.2198L62.5254 395.381Z" fill="#0C193F"/>
<path d="M63.7973 267.027H40.9224V220.43C46.3446 205.18 55.3251 214.076 59.1376 220.43L63.7973 267.027Z" fill="#1F1D42"/>
<path d="M301.019 247.118H276.873L255.693 240.763V201.368V199.25L276.873 198.677L302.714 197.979L302.597 201.368L301.019 247.118Z" fill="#1F326B"/>
<path d="M301.019 247.118H276.874V201.368V198.677L302.714 197.979L302.597 201.368L301.019 247.118Z" fill="#FEFDE8"/>
<path d="M255.693 199.25L276.873 198.677L302.714 197.979L302.597 201.368H276.873H255.693V199.25Z" fill="#112F7F"/>
<rect x="129.881" y="125.966" width="1.69444" height="33.8888" fill="#0C1942"/>
<rect x="190.032" y="166.632" width="1.69444" height="189.777" transform="rotate(90 190.032 166.632)" fill="#0C1942"/>
<rect x="190.032" y="199.673" width="1.69444" height="189.777" transform="rotate(90 190.032 199.673)" fill="#0C1942"/>
<path d="M7.00092 231.867H104.855H181.501" stroke="#18265D" stroke-width="4"/>
<rect x="190.032" y="186.118" width="1.69444" height="189.777" transform="rotate(90 190.032 186.118)" fill="#081334"/>
<rect x="59.5602" y="125.966" width="1.69444" height="33.8888" fill="#132355"/>
<rect x="77.352" y="131.895" width="1.69444" height="27.9582" fill="#132355"/>
<rect x="80.7407" y="131.895" width="1.69444" height="27.9582" fill="#132355"/>
<rect x="85.8238" y="131.895" width="1.69444" height="27.9582" fill="#132355"/>
<path d="M170.546 235.257L176.259 244.153M251.879 337.77L245.72 330.145M176.259 244.153L402.308 249.66M176.259 244.153L186.524 256.861M186.524 256.861L411.061 261.944M186.524 256.861L197.816 270.84M197.816 270.84L419.813 274.229M197.816 270.84L206.976 282.18M206.976 282.18L428.566 286.514M206.976 282.18L218.004 295.833M218.004 295.833L437.42 298.939M218.004 295.833L227.243 307.27M227.243 307.27L446.739 312.019M227.243 307.27L239.561 322.52M239.561 322.52H454.221M239.561 322.52L245.72 330.145M245.72 330.145L461.918 333.322" stroke="#A3BDFF" stroke-width="4"/>
<rect x="32.4506" y="168.327" width="1.69444" height="31.3471" fill="#121B3A"/>
<rect x="0.255676" y="168.327" width="1.69444" height="31.3471" fill="#121B3A"/>
<rect x="188.338" y="168.327" width="1.69444" height="31.3471" fill="#121B3A"/>
<path d="M326.436 511.026H312.88V579.651H326.436V511.026Z" fill="#0C183F"/>
<path d="M312.88 579.651H326.436V545.339H312.88V579.651Z" fill="#17275F"/>
<path d="M438.691 548.304H416.24V580.499H438.691V548.304Z" fill="#17275F"/>
<path d="M97.6865 79.7914L95.9921 1" stroke="black" stroke-width="3"/>
<rect x="159.534" y="168.327" width="1.69444" height="31.3471" fill="#121B3A"/>
<rect x="100.227" y="168.327" width="1.69444" height="31.3471" fill="#121B3A"/>
<rect x="26.5193" y="168.327" width="1.69444" height="31.3471" fill="#121B3A"/>
<rect x="153.602" y="168.327" width="1.69444" height="31.3471" fill="#121B3A"/>
<rect x="153.602" y="168.327" width="1.69444" height="31.3471" fill="#121B3A"/>
<rect x="94.2977" y="168.327" width="1.69444" height="31.3471" fill="#121B3A"/>
<rect x="107.853" y="131.895" width="1.69444" height="27.9582" fill="#121B3A"/>
<rect x="111.241" y="131.895" width="1.69444" height="27.9582" fill="#121B3A"/>
<rect x="101.921" y="131.895" width="1.69444" height="27.9582" fill="#121B3A"/>
<path d="M416.24 580.499H438.691V564.402H416.24V580.499Z" fill="#0F1C49"/>
<path d="M452.67 556.353H444.198V574.145L452.67 573.721V556.353Z" fill="#FAF2E2"/>
<path d="M149.365 511.449V548.727H153.601V604.643H160.803V546.185H156.143V517.803H197.657V546.185H190.879V604.643H195.115V548.727H203.164V511.449H149.365Z" fill="#0D0808"/>
<path d="M190.881 546.186V604.644H160.805V546.186H156.145V517.804H197.659V546.186H190.881Z" fill="#17275F"/>
</svg>
